<svg xmlns="http://www.w3.org/2000/svg" viewBox="0 0 256 256"><defs><linearGradient id="bg" x1="0%" y1="0%" x2="100%" y2="100%"><stop offset="0%" style="stop-color:#1a1a2e"/><stop offset="100%" style="stop-color:#16213e"/></linearGradient></defs><rect width="256" height="256" rx="32" fill="url(#bg)"/><path d="M128 20 L230 60 L230 130 C230 190 180 230 128 246 C76 230 26 190 26 130 L26 60 Z" fill="none" stroke="#e94560" stroke-width="6" stroke-linecap="round"/><circle cx="128" cy="90" r="12" fill="#e94560"/><circle cx="80" cy="140" r="10" fill="#0f3460" stroke="#e94560" stroke-width="2"/><circle cx="176" cy="140" r="10" fill="#0f3460" stroke="#e94560" stroke-width="2"/><circle cx="128" cy="190" r="10" fill="#0f3460" stroke="#e94560" stroke-width="2"/><line x1="128" y1="102" x2="80" y2="130" stroke="#e94560" stroke-width="2" stroke-linecap="round"/><line x1="128" y1="102" x2="176" y2="130" stroke="#e94560" stroke-width="2" stroke-linecap="round"/><line x1="88" y1="145" x2="118" y2="180" stroke="#e94560" stroke-width="2" stroke-linecap="round"/><line x1="168" y1="145" x2="138" y2="180" stroke="#e94560" stroke-width="2" stroke-linecap="round"/><rect x="118" y="70" width="20" height="16" rx="2" fill="#e94560"/></svg>
