<svg xmlns="http://www.w3.org/2000/svg" viewBox="0 0 512 512">
  <defs>
    <linearGradient id="bg" x1="0%" y1="0%" x2="100%" y2="100%">
      <stop offset="0%" style="stop-color:#1a1a2e"/>
      <stop offset="100%" style="stop-color:#16213e"/>
    </linearGradient>
    <linearGradient id="shield" x1="0%" y1="0%" x2="100%" y2="100%">
      <stop offset="0%" style="stop-color:#0f3460"/>
      <stop offset="100%" style="stop-color:#e94560"/>
    </linearGradient>
  </defs>
  <rect width="512" height="512" rx="64" fill="url(#bg)"/>
  <path d="M256 40 L460 120 L460 260 C460 380 360 460 256 492 C152 460 52 380 52 260 L52 120 Z" fill="none" stroke="url(#shield)" stroke-width="12" stroke-linecap="round"/>
  <circle cx="256" cy="180" r="24" fill="#e94560"/>
  <circle cx="160" cy="280" r="20" fill="#0f3460" stroke="#e94560" stroke-width="4"/>
  <circle cx="352" cy="280" r="20" fill="#0f3460" stroke="#e94560" stroke-width="4"/>
  <circle cx="256" cy="380" r="20" fill="#0f3460" stroke="#e94560" stroke-width="4"/>
  <line x1="256" y1="204" x2="160" y2="260" stroke="#e94560" stroke-width="4" stroke-linecap="round"/>
  <line x1="256" y1="204" x2="352" y2="260" stroke="#e94560" stroke-width="4" stroke-linecap="round"/>
  <line x1="176" y1="290" x2="236" y2="360" stroke="#e94560" stroke-width="4" stroke-linecap="round"/>
  <line x1="336" y1="290" x2="276" y2="360" stroke="#e94560" stroke-width="4" stroke-linecap="round"/>
  <line x1="160" y1="280" x2="352" y2="280" stroke="#e94560" stroke-width="4" stroke-linecap="round" stroke-dasharray="8 8"/>
  <rect x="236" y="140" width="40" height="32" rx="4" fill="#e94560"/>
  <path d="M246 140 L246 125 A10 10 0 0 1 266 125 L266 140" fill="none" stroke="#e94560" stroke-width="6" stroke-linecap="round"/>
  <text x="256" y="460" text-anchor="middle" font-family="Arial, sans-serif" font-size="48" font-weight="bold" fill="#e94560">AAMN</text>
  <text x="256" y="490" text-anchor="middle" font-family="Arial, sans-serif" font-size="16" fill="#888">Anonymous Mesh Network</text>
</svg>
